<?xml version="1.0" standalone="no"?>
<!DOCTYPE svg PUBLIC "-//W3C//DTD SVG 1.1//EN" "http://www.w3.org/Graphics/SVG/1.1/DTD/svg11.dtd">
<svg xmlns="http://www.w3.org/2000/svg" xmlns:xlink="http://www.w3.org/1999/xlink" width="375" zoomAndPan="magnify" viewBox="0 0 375 374.999991" height="375" preserveAspectRatio="xMidYMid meet" version="1.0"><path fill="#ffffff" d="M 305.832031 202.589844 L 328.476562 202.589844 L 328.476562 202.832031 L 305.832031 202.832031 Z M 305.832031 202.589844 " fill-opacity="1" fill-rule="nonzero"/><path fill="#ffffff" d="M 170.640625 199.058594 L 171.742188 199.058594 L 171.742188 206.707031 L 170.640625 206.707031 Z M 170.640625 199.058594 " fill-opacity="1" fill-rule="nonzero"/><path fill="#ffffff" d="M 182.144531 203.382812 L 182.144531 206.707031 L 181.082031 206.707031 L 181.082031 203.496094 C 181.082031 202.363281 180.515625 201.796875 179.511719 201.796875 C 178.390625 201.796875 177.671875 202.457031 177.671875 203.722656 L 177.671875 206.707031 L 176.609375 206.707031 L 176.609375 200.90625 L 177.613281 200.90625 L 177.613281 201.777344 C 178.050781 201.191406 178.789062 200.851562 179.71875 200.851562 C 181.140625 200.871094 182.144531 201.664062 182.144531 203.382812 Z M 182.144531 203.382812 " fill-opacity="1" fill-rule="nonzero"/><path fill="#ffffff" d="M 188.019531 200.417969 L 188.019531 200.925781 L 189.703125 200.925781 L 189.703125 201.796875 L 188.039062 201.796875 L 188.039062 206.707031 L 186.996094 206.707031 L 186.996094 201.777344 L 186.007812 201.777344 L 186.007812 200.90625 L 186.996094 200.90625 L 186.996094 200.398438 C 186.996094 199.265625 187.675781 198.527344 188.910156 198.527344 C 189.363281 198.527344 189.800781 198.640625 190.101562 198.867188 L 189.78125 199.660156 C 189.554688 199.492188 189.269531 199.398438 188.964844 199.398438 C 188.339844 199.398438 188.019531 199.753906 188.019531 200.417969 Z M 188.019531 200.417969 " fill-opacity="1" fill-rule="nonzero"/><path fill="#ffffff" d="M 192.832031 203.816406 C 192.832031 202.097656 194.121094 200.871094 195.863281 200.871094 C 197.605469 200.871094 198.875 202.097656 198.875 203.816406 C 198.875 205.535156 197.605469 206.78125 195.863281 206.78125 C 194.121094 206.78125 192.832031 205.535156 192.832031 203.816406 Z M 197.816406 203.816406 C 197.816406 202.589844 196.980469 201.777344 195.863281 201.777344 C 194.746094 201.777344 193.894531 202.570312 193.894531 203.816406 C 193.894531 205.0625 194.746094 205.855469 195.863281 205.855469 C 196.980469 205.855469 197.816406 205.042969 197.816406 203.816406 Z M 197.816406 203.816406 " fill-opacity="1" fill-rule="nonzero"/><path fill="#ffffff" d="M 203.859375 200 L 201.226562 200 L 201.226562 199.058594 L 207.574219 199.058594 L 207.574219 200 L 204.941406 200 L 204.941406 206.707031 L 203.859375 206.707031 Z M 203.859375 200 " fill-opacity="1" fill-rule="nonzero"/><path fill="#ffffff" d="M 215.988281 204.15625 L 211.269531 204.15625 C 211.402344 205.175781 212.21875 205.855469 213.375 205.855469 C 214.054688 205.855469 214.625 205.628906 215.058594 205.15625 L 215.648438 205.835938 C 215.117188 206.441406 214.320312 206.78125 213.355469 206.78125 C 211.480469 206.78125 210.226562 205.554688 210.226562 203.816406 C 210.226562 202.097656 211.460938 200.871094 213.144531 200.871094 C 214.832031 200.871094 216.027344 202.078125 216.027344 203.855469 C 216.027344 203.929688 216.007812 204.0625 215.988281 204.15625 Z M 211.289062 203.398438 L 215.023438 203.398438 C 214.910156 202.417969 214.167969 201.738281 213.164062 201.738281 C 212.140625 201.757812 211.382812 202.417969 211.289062 203.398438 Z M 211.289062 203.398438 " fill-opacity="1" fill-rule="nonzero"/><path fill="#ffffff" d="M 219.683594 203.816406 C 219.683594 202.097656 220.972656 200.871094 222.753906 200.871094 C 223.796875 200.871094 224.667969 201.304688 225.121094 202.097656 L 224.328125 202.605469 C 223.949219 202.039062 223.378906 201.777344 222.753906 201.777344 C 221.617188 201.777344 220.765625 202.570312 220.765625 203.816406 C 220.765625 205.082031 221.617188 205.855469 222.753906 205.855469 C 223.398438 205.855469 223.964844 205.589844 224.328125 205.023438 L 225.121094 205.535156 C 224.667969 206.347656 223.796875 206.78125 222.753906 206.78125 C 220.972656 206.78125 219.683594 205.535156 219.683594 203.816406 Z M 219.683594 203.816406 " fill-opacity="1" fill-rule="nonzero"/><path fill="#ffffff" d="M 234.671875 203.382812 L 234.671875 206.707031 L 233.613281 206.707031 L 233.613281 203.496094 C 233.613281 202.363281 233.042969 201.796875 232.039062 201.796875 C 230.921875 201.796875 230.199219 202.457031 230.199219 203.722656 L 230.199219 206.707031 L 229.140625 206.707031 L 229.140625 198.585938 L 230.199219 198.585938 L 230.199219 201.71875 C 230.636719 201.152344 231.355469 200.851562 232.246094 200.851562 C 233.667969 200.871094 234.671875 201.664062 234.671875 203.382812 Z M 234.671875 203.382812 " fill-opacity="1" fill-rule="nonzero"/><path fill="#ffffff" d="M 251.40625 201.71875 C 251.40625 203.382812 250.195312 204.382812 248.203125 204.382812 L 246.308594 204.382812 L 246.308594 206.707031 L 245.210938 206.707031 L 245.210938 199.058594 L 248.203125 199.058594 C 250.195312 199.058594 251.40625 200.058594 251.40625 201.71875 Z M 250.308594 201.71875 C 250.308594 200.625 249.566406 200 248.164062 200 L 246.308594 200 L 246.308594 203.4375 L 248.164062 203.4375 C 249.566406 203.4375 250.308594 202.816406 250.308594 201.71875 Z M 250.308594 201.71875 " fill-opacity="1" fill-rule="nonzero"/><path fill="#ffffff" d="M 260.785156 200.925781 L 258.246094 206.707031 L 257.167969 206.707031 L 254.628906 200.90625 L 255.726562 200.90625 L 257.714844 205.554688 L 259.761719 200.90625 L 260.785156 200.90625 Z M 260.785156 200.925781 " fill-opacity="1" fill-rule="nonzero"/><path fill="#ffffff" d="M 267.949219 206.367188 C 267.628906 206.628906 267.152344 206.761719 266.679688 206.761719 C 265.503906 206.761719 264.839844 206.121094 264.839844 204.949219 L 264.839844 201.777344 L 263.855469 201.777344 L 263.855469 200.90625 L 264.839844 200.90625 L 264.839844 199.640625 L 265.902344 199.640625 L 265.902344 200.90625 L 267.570312 200.90625 L 267.570312 201.777344 L 265.902344 201.777344 L 265.902344 204.910156 C 265.902344 205.535156 266.226562 205.894531 266.8125 205.894531 C 267.117188 205.894531 267.417969 205.796875 267.628906 205.628906 Z M 267.949219 206.367188 " fill-opacity="1" fill-rule="nonzero"/><path fill="#ffffff" d="M 277.824219 199.058594 L 278.921875 199.058594 L 278.921875 205.761719 L 283.070312 205.761719 L 283.070312 206.707031 L 277.824219 206.707031 Z M 277.824219 199.058594 " fill-opacity="1" fill-rule="nonzero"/><path fill="#ffffff" d="M 290.140625 206.367188 C 289.816406 206.628906 289.34375 206.761719 288.871094 206.761719 C 287.695312 206.761719 287.03125 206.121094 287.03125 204.949219 L 287.03125 201.777344 L 286.046875 201.777344 L 286.046875 200.90625 L 287.03125 200.90625 L 287.03125 199.640625 L 288.09375 199.640625 L 288.09375 200.90625 L 289.761719 200.90625 L 289.761719 201.777344 L 288.09375 201.777344 L 288.09375 204.910156 C 288.09375 205.535156 288.414062 205.894531 289.003906 205.894531 C 289.304688 205.894531 289.609375 205.796875 289.816406 205.628906 Z M 290.140625 206.367188 " fill-opacity="1" fill-rule="nonzero"/><path fill="#ffffff" d="M 299.425781 198.605469 L 299.425781 206.722656 L 298.421875 206.722656 L 298.421875 205.796875 C 297.949219 206.460938 297.207031 206.78125 296.355469 206.78125 C 294.648438 206.78125 293.417969 205.589844 293.417969 203.816406 C 293.417969 202.039062 294.648438 200.871094 296.355469 200.871094 C 297.171875 200.871094 297.910156 201.171875 298.382812 201.796875 L 298.382812 198.605469 Z M 298.382812 203.816406 C 298.382812 202.589844 297.53125 201.777344 296.429688 201.777344 C 295.3125 201.777344 294.460938 202.570312 294.460938 203.816406 C 294.460938 205.0625 295.3125 205.855469 296.429688 205.855469 C 297.550781 205.855469 298.382812 205.042969 298.382812 203.816406 Z M 298.382812 203.816406 " fill-opacity="1" fill-rule="nonzero"/><path fill="#ffffff" d="M 142.234375 202.589844 L 164.878906 202.589844 L 164.878906 202.832031 L 142.234375 202.832031 Z M 142.234375 202.589844 " fill-opacity="1" fill-rule="nonzero"/><path fill="#ffffff" d="M 180.34375 167.839844 L 172.042969 192.785156 L 167.117188 192.785156 L 160.921875 174.316406 L 154.628906 192.785156 L 149.664062 192.785156 L 141.363281 167.839844 L 146.195312 167.839844 L 152.410156 186.800781 L 158.890625 167.839844 L 163.195312 167.839844 L 169.523438 186.914062 L 175.929688 167.839844 Z M 180.34375 167.839844 " fill-opacity="1" fill-rule="nonzero"/><path fill="#ffffff" d="M 203.101562 188.914062 L 203.101562 192.804688 L 184.324219 192.804688 L 184.324219 167.839844 L 202.609375 167.839844 L 202.609375 171.730469 L 188.984375 171.730469 L 188.984375 178.226562 L 201.074219 178.226562 L 201.074219 182.042969 L 188.984375 182.042969 L 188.984375 188.914062 Z M 203.101562 188.914062 " fill-opacity="1" fill-rule="nonzero"/><path fill="#ffffff" d="M 230.710938 186.027344 C 230.710938 190.3125 227.359375 192.804688 220.914062 192.804688 L 208.464844 192.804688 L 208.464844 167.839844 L 220.195312 167.839844 C 226.203125 167.839844 229.425781 170.371094 229.425781 174.335938 C 229.425781 176.90625 228.136719 178.792969 226.203125 179.832031 C 228.894531 180.683594 230.710938 182.777344 230.710938 186.027344 Z M 213.109375 171.484375 L 213.109375 178.359375 L 219.683594 178.359375 C 222.90625 178.359375 224.722656 177.226562 224.722656 174.941406 C 224.722656 172.617188 222.90625 171.484375 219.683594 171.484375 Z M 226.03125 185.574219 C 226.03125 183.082031 224.136719 181.964844 220.632812 181.964844 L 213.128906 181.964844 L 213.128906 189.160156 L 220.632812 189.160156 C 224.136719 189.160156 226.03125 188.066406 226.03125 185.574219 Z M 226.03125 185.574219 " fill-opacity="1" fill-rule="nonzero"/><path fill="#ffffff" d="M 254.648438 188.914062 L 254.648438 192.804688 L 235.867188 192.804688 L 235.867188 167.839844 L 254.152344 167.839844 L 254.152344 171.730469 L 240.527344 171.730469 L 240.527344 178.226562 L 252.617188 178.226562 L 252.617188 182.042969 L 240.527344 182.042969 L 240.527344 188.914062 Z M 254.648438 188.914062 " fill-opacity="1" fill-rule="nonzero"/><path fill="#ffffff" d="M 276.402344 192.804688 L 271.285156 185.496094 C 270.960938 185.535156 270.640625 185.535156 270.316406 185.535156 L 264.671875 185.535156 L 264.671875 192.804688 L 260.027344 192.804688 L 260.027344 167.839844 L 270.335938 167.839844 C 276.914062 167.839844 281.007812 171.183594 281.007812 176.714844 C 281.007812 180.492188 279.074219 183.269531 275.679688 184.589844 L 281.441406 192.785156 L 276.402344 192.785156 Z M 270.089844 171.769531 L 264.652344 171.769531 L 264.652344 181.71875 L 270.089844 181.71875 C 274.164062 181.71875 276.289062 179.871094 276.289062 176.734375 C 276.289062 173.582031 274.183594 171.769531 270.089844 171.769531 Z M 270.089844 171.769531 " fill-opacity="1" fill-rule="nonzero"/><path fill="#ffffff" d="M 284.226562 190.160156 L 285.839844 186.554688 C 287.847656 188.160156 291.03125 189.292969 294.101562 189.292969 C 298.003906 189.292969 299.652344 187.894531 299.652344 186.046875 C 299.652344 180.664062 284.777344 184.195312 284.777344 174.921875 C 284.777344 170.898438 288 167.460938 294.859375 167.460938 C 297.871094 167.460938 301.015625 168.253906 303.195312 169.671875 L 301.738281 173.277344 C 299.480469 171.957031 297.019531 171.316406 294.839844 171.316406 C 290.972656 171.316406 289.402344 172.808594 289.402344 174.695312 C 289.402344 180 304.238281 176.546875 304.238281 185.707031 C 304.238281 189.691406 300.980469 193.125 294.121094 193.125 C 290.195312 193.164062 286.292969 191.9375 284.226562 190.160156 Z M 284.226562 190.160156 " fill-opacity="1" fill-rule="nonzero"/><path fill="#ffffff" d="M 327.792969 188.914062 L 327.792969 192.804688 L 309.015625 192.804688 L 309.015625 167.839844 L 327.300781 167.839844 L 327.300781 171.730469 L 313.675781 171.730469 L 313.675781 178.226562 L 325.765625 178.226562 L 325.765625 182.042969 L 313.675781 182.042969 L 313.675781 188.914062 Z M 327.792969 188.914062 " fill-opacity="1" fill-rule="nonzero"/><path fill="#ffffff" d="M 130.921875 149.105469 L 131.546875 149.105469 L 131.546875 224.609375 L 130.921875 224.609375 Z M 130.921875 149.105469 " fill-opacity="1" fill-rule="nonzero"/><path fill="#ffffff" d="M 66.246094 219.148438 L 98.519531 219.148438 L 98.519531 220.660156 L 66.246094 220.660156 Z M 66.246094 219.148438 " fill-opacity="1" fill-rule="nonzero"/><path fill="#ffffff" d="M 73.789062 211.785156 L 70.90625 218.09375 L 93.988281 218.09375 L 91.128906 211.785156 Z M 73.789062 211.785156 " fill-opacity="1" fill-rule="nonzero"/><path fill="#ffffff" d="M 114.359375 179.039062 L 114.359375 202.304688 C 114.359375 204.589844 112.503906 206.441406 110.210938 206.441406 L 54.402344 206.441406 C 52.109375 206.441406 50.253906 204.589844 50.253906 202.304688 L 50.253906 166.875 C 50.253906 164.59375 52.109375 162.742188 54.402344 162.742188 L 98.289062 162.742188 L 98.289062 158.984375 L 54.402344 158.984375 C 50.042969 158.984375 46.480469 162.515625 46.480469 166.875 L 46.480469 202.324219 C 46.480469 206.667969 50.023438 210.21875 54.402344 210.21875 L 110.210938 210.21875 C 114.566406 210.21875 118.132812 206.6875 118.132812 202.324219 L 118.132812 179.039062 Z M 114.359375 179.039062 " fill-opacity="1" fill-rule="nonzero"/><path fill="#ffffff" d="M 102.117188 158.945312 L 107.0625 158.945312 L 107.0625 163.875 L 102.117188 163.875 Z M 102.117188 158.945312 " fill-opacity="1" fill-rule="nonzero"/><path fill="#ffffff" d="M 114.285156 170.484375 L 119.457031 170.484375 L 119.457031 175.640625 L 114.285156 175.640625 Z M 114.285156 170.484375 " fill-opacity="1" fill-rule="nonzero"/><path fill="#ffffff" d="M 111.082031 162.476562 L 115.136719 162.476562 L 115.136719 166.519531 L 111.082031 166.519531 Z M 111.082031 162.476562 " fill-opacity="1" fill-rule="nonzero"/><path fill="#ffffff" d="M 118.792969 164.667969 L 121.941406 164.667969 L 121.941406 167.800781 L 118.792969 167.800781 Z M 118.792969 164.667969 " fill-opacity="1" fill-rule="nonzero"/><path fill="#ffffff" d="M 109.109375 157.753906 L 111.367188 157.753906 L 111.367188 160.003906 L 109.109375 160.003906 Z M 109.109375 157.753906 " fill-opacity="1" fill-rule="nonzero"/><path fill="#ffffff" d="M 118.113281 160.171875 L 119.683594 160.171875 L 119.683594 161.738281 L 118.113281 161.738281 Z M 118.113281 160.171875 " fill-opacity="1" fill-rule="nonzero"/><path fill="#ffffff" d="M 119.894531 154.808594 L 121.695312 154.808594 L 121.695312 156.605469 L 119.894531 156.605469 Z M 119.894531 154.808594 " fill-opacity="1" fill-rule="nonzero"/><path fill="#ffffff" d="M 107.917969 152.789062 L 109.945312 152.789062 L 109.945312 154.808594 L 107.917969 154.808594 Z M 107.917969 152.789062 " fill-opacity="1" fill-rule="nonzero"/><path fill="#ffffff" d="M 113.164062 155.300781 L 115.855469 155.300781 L 115.855469 157.980469 L 113.164062 157.980469 Z M 113.164062 155.300781 " fill-opacity="1" fill-rule="nonzero"/><path fill="#ffffff" d="M 103.824219 155.28125 L 105.394531 155.28125 L 105.394531 156.847656 L 103.824219 156.847656 Z M 103.824219 155.28125 " fill-opacity="1" fill-rule="nonzero"/><path fill="#ffffff" d="M 55.578125 197.886719 L 58.835938 196.902344 L 70.015625 192.863281 L 72.785156 200.207031 L 73.390625 200.207031 L 78.375 189.558594 L 84.703125 186.988281 L 90.84375 200.207031 L 91.582031 200.207031 L 98.820312 180.738281 L 106.496094 176.886719 Z M 90.765625 186.515625 L 90.085938 184.703125 L 91.449219 184.023438 Z M 90.765625 186.515625 " fill-opacity="1" fill-rule="nonzero"/><path fill="#ffffff" d="M 60.84375 170.21875 L 67.402344 187.480469 L 55.234375 192.429688 L 70.074219 187.292969 L 89.15625 179.644531 L 99.351562 175.128906 L 108.941406 170.578125 L 102.421875 173.164062 L 103.484375 170.21875 L 97.019531 170.21875 L 94.824219 176.320312 L 86.691406 179.644531 L 82.164062 170.21875 L 75.53125 184.117188 L 72.820312 185.269531 L 67.476562 170.21875 Z M 60.84375 170.21875 " fill-opacity="1" fill-rule="nonzero"/><path stroke-linecap="butt" transform="matrix(0.1895, 0, 0, 0.188849, 45.249174, 147.973116)" fill-opacity="1" fill="#ffffff" fill-rule="nonzero" stroke-linejoin="miter" d="M 65.699452 263.80777 C 65.699452 264.676519 65.534545 265.524584 65.204729 266.33128 C 64.854301 267.137976 64.380191 267.841249 63.761787 268.461784 C 63.143383 269.082319 62.442526 269.558063 61.617987 269.889015 C 60.814063 270.240652 59.968911 270.406128 59.103145 270.406128 C 58.216767 270.406128 57.392228 270.240652 56.56769 269.889015 C 55.763765 269.558063 55.042294 269.082319 54.42389 268.461784 C 53.805486 267.841249 53.331377 267.137976 53.001561 266.33128 C 52.671746 265.524584 52.506838 264.676519 52.506838 263.80777 C 52.506838 262.918336 52.671746 262.090956 53.001561 261.28426 C 53.331377 260.45688 53.805486 259.753607 54.42389 259.133071 C 55.042294 258.512536 55.763765 258.036793 56.56769 257.70584 C 57.392228 257.374888 58.216767 257.209412 59.103145 257.209412 C 59.968911 257.209412 60.814063 257.374888 61.617987 257.70584 C 62.442526 258.036793 63.143383 258.512536 63.761787 259.133071 C 64.380191 259.753607 64.854301 260.45688 65.204729 261.28426 C 65.534545 262.090956 65.699452 262.918336 65.699452 263.80777 Z M 65.699452 263.80777 " stroke="#102f50" stroke-width="3" stroke-opacity="1" stroke-miterlimit="10"/><path stroke-linecap="butt" transform="matrix(0.1895, 0, 0, 0.188849, 45.249174, 147.973116)" fill-opacity="1" fill="#ffffff" fill-rule="nonzero" stroke-linejoin="miter" d="M 322.295796 156.992975 C 322.295796 157.882409 322.130888 158.709789 321.801073 159.516485 C 321.471258 160.343865 320.976535 161.047139 320.358131 161.667674 C 319.739727 162.288209 319.038869 162.763953 318.234944 163.094905 C 317.410406 163.425857 316.565254 163.591333 315.699489 163.591333 C 314.833724 163.591333 313.988572 163.425857 313.164033 163.094905 C 312.360108 162.763953 311.659251 162.288209 311.040847 161.667674 C 310.422443 161.047139 309.92772 160.343865 309.597905 159.516485 C 309.26809 158.709789 309.103182 157.882409 309.103182 156.992975 C 309.103182 156.124226 309.26809 155.276161 309.597905 154.469465 C 309.92772 153.66277 310.422443 152.959496 311.040847 152.338961 C 311.659251 151.718426 312.360108 151.242682 313.164033 150.91173 C 313.988572 150.560093 314.833724 150.394617 315.699489 150.394617 C 316.565254 150.394617 317.410406 150.560093 318.234944 150.91173 C 319.038869 151.242682 319.739727 151.718426 320.358131 152.338961 C 320.976535 152.959496 321.471258 153.66277 321.801073 154.469465 C 322.130888 155.276161 322.295796 156.124226 322.295796 156.992975 Z M 322.295796 156.992975 " stroke="#102f50" stroke-width="3" stroke-opacity="1" stroke-miterlimit="10"/><path stroke-linecap="butt" transform="matrix(0.1895, 0, 0, 0.188849, 45.249174, 147.973116)" fill-opacity="1" fill="#ffffff" fill-rule="nonzero" stroke-linejoin="miter" d="M 66.709512 232.491426 C 66.709512 233.38086 66.523991 234.20824 66.194175 235.035621 C 65.86436 235.842316 65.390251 236.54559 64.771847 237.166125 C 64.153443 237.78666 63.431972 238.262404 62.628047 238.593356 C 61.824122 238.924308 60.97897 239.089784 60.092591 239.089784 C 59.226826 239.089784 58.381674 238.924308 57.577749 238.593356 C 56.773824 238.262404 56.052353 237.78666 55.43395 237.166125 C 54.815546 236.54559 54.341436 235.842316 54.011621 235.035621 C 53.661192 234.20824 53.496284 233.38086 53.496284 232.491426 C 53.496284 231.622677 53.661192 230.774612 54.011621 229.967916 C 54.341436 229.161221 54.815546 228.457947 55.43395 227.837412 C 56.052353 227.216877 56.773824 226.741133 57.577749 226.410181 C 58.381674 226.058544 59.226826 225.893068 60.092591 225.893068 C 60.97897 225.893068 61.824122 226.058544 62.628047 226.410181 C 63.431972 226.741133 64.153443 227.216877 64.771847 227.837412 C 65.390251 228.457947 65.86436 229.161221 66.194175 229.967916 C 66.523991 230.774612 66.709512 231.622677 66.709512 232.491426 Z M 66.709512 232.491426 " stroke="#76b558" stroke-width="3" stroke-opacity="1" stroke-miterlimit="10"/><path stroke-linecap="butt" transform="matrix(0.1895, 0, 0, 0.188849, 45.249174, 147.973116)" fill-opacity="1" fill="#ffffff" fill-rule="nonzero" stroke-linejoin="miter" d="M 336.993193 121.394938 C 336.993193 122.284372 336.828285 123.111753 336.49847 123.918448 C 336.168654 124.725144 335.694545 125.449102 335.076141 126.069637 C 334.457737 126.690172 333.736266 127.165916 332.932341 127.496868 C 332.107803 127.82782 331.283264 127.993296 330.396886 127.993296 C 329.53112 127.993296 328.685968 127.82782 327.882043 127.496868 C 327.057505 127.165916 326.356647 126.690172 325.738244 126.069637 C 325.11984 125.449102 324.64573 124.725144 324.295302 123.918448 C 323.965486 123.111753 323.800578 122.284372 323.800578 121.394938 C 323.800578 120.526189 323.965486 119.678124 324.295302 118.871429 C 324.64573 118.064733 325.11984 117.36146 325.738244 116.740924 C 326.356647 116.120389 327.057505 115.644645 327.882043 115.293009 C 328.685968 114.962057 329.53112 114.796581 330.396886 114.796581 C 331.283264 114.796581 332.107803 114.962057 332.932341 115.293009 C 333.736266 115.644645 334.457737 116.120389 335.076141 116.740924 C 335.694545 117.36146 336.168654 118.064733 336.49847 118.871429 C 336.828285 119.678124 336.993193 120.526189 336.993193 121.394938 Z M 336.993193 121.394938 " stroke="#76b558" stroke-width="3" stroke-opacity="1" stroke-miterlimit="10"/></svg>